<svg width="47" height="32" viewBox="0 0 47 32" fill="none" xmlns="http://www.w3.org/2000/svg">
<path d="M14 21.7V24.3C14 24.7 13.7 25 13.3 25H6.7C6.3 25 6 24.7 6 24.3V21.7C6 21.3 6.3 21 6.7 21H13.3C13.7 21 14 21.3 14 21.7Z" fill="#FCE38A"/>
<path d="M2 9V27.8C2 29 3 30 4.3 30H41.8C43 30 44.1 29 44.1 27.7V9H2ZM16 24.3C16 25.8 14.8 27 13.3 27H6.7C5.2 27 4 25.8 4 24.3V21.7C4 20.2 5.2 19 6.7 19H13.3C14.8 19 16 20.2 16 21.7V24.3ZM16 17H5C4.5 17 4 16.5 4 16C4 15.5 4.5 15 5 15H16C16.5 15 17 15.5 17 16C17 16.5 16.5 17 16 17ZM23 13H5C4.5 13 4 12.5 4 12C4 11.5 4.5 11 5 11H23C23.5 11 24 11.5 24 12C24 12.5 23.5 13 23 13Z" fill="#95E1D3"/>
<path d="M44 4.3V7H2V4.2C2 3 3 2 4.3 2H41.8C43 2 44 3 44 4.3Z" fill="#FCE38A"/>
<path d="M41.8 0H4.3C1.9 0 0 1.9 0 4.3V8C0 7.4 0.4 7 1 7H2V4.2C2 3 3 2 4.3 2H41.8C43 2 44.1 3 44.1 4.3V7H45.1C45.7 7 46.1 7.4 46.1 8V4.2C46 1.9 44.1 0 41.8 0ZM45 9H44V27.8C44 29 43 30.1 41.7 30.1H4.3C3 30 2 29 2 27.8V9H1C0.4 9 0 8.6 0 8V27.8C0 30.1 1.9 32 4.3 32H41.8C44.1 32 46.1 30.1 46.1 27.7V8C46 8.6 45.6 9 45 9Z" fill="#2F4B49"/>
<path d="M44 7H2V9H44V7Z" fill="#2F4B49"/>
<path d="M1 9H2V7H1C0.4 7 0 7.4 0 8C0 8.6 0.4 9 1 9ZM45 7H44V9H45C45.6 9 46 8.6 46 8C46 7.4 45.6 7 45 7Z" fill="#2F4B49"/>
<path d="M7 21V25H6.7C6.3 25 6 24.7 6 24.3V21.7C6 21.3 6.3 21 6.7 21H7Z" fill="#FCE38A"/>
<path d="M7 2V7H2V4.2C2 3 3 2 4.3 2H7ZM7 9V30H4.3C3 30 2 29 2 27.8V9H7Z" fill="white"/>
<path d="M44 9V27.8C44 29 43 30.1 41.7 30.1H40V9H44Z" fill="#8DC4BC"/>
<path d="M44 4.3V7H40V2H41.8C43 2 44 3 44 4.3Z" fill="#E4CE7E"/>
<path d="M6.7 27H13.3C14.8 27 16 25.8 16 24.3V21.7C16 20.2 14.8 19 13.3 19H6.7C5.2 19 4 20.2 4 21.7V24.3C4 25.8 5.2 27 6.7 27ZM6 21.7C6 21.3 6.3 21 6.7 21H13.3C13.7 21 14 21.3 14 21.7V24.3C14 24.7 13.7 25 13.3 25H6.7C6.3 25 6 24.7 6 24.3V21.7ZM5 13H23C23.6 13 24 12.6 24 12C24 11.4 23.6 11 23 11H5C4.4 11 4 11.4 4 12C4 12.6 4.4 13 5 13ZM5 17H16C16.6 17 17 16.6 17 16C17 15.4 16.6 15 16 15H5C4.4 15 4 15.4 4 16C4 16.6 4.4 17 5 17Z" fill="#2F4B49"/>
</svg>
