<svg width="100" height="98" viewBox="0 0 100 98" fill="none" xmlns="http://www.w3.org/2000/svg">
<rect x="16.4956" y="17.9542" width="64.3048" height="22" rx="1" fill="#B8DCFF"/>
<rect x="16.4956" y="17.9542" width="64.3048" height="22" rx="1" stroke="black"/>
<rect x="22.4548" y="23.7321" width="24" height="10" fill="#3472CC"/>
<rect x="26.9548" y="27.2321" width="3" height="3" fill="white"/>
<rect x="32.9548" y="27.2321" width="3" height="3" fill="white"/>
<rect x="38.9548" y="27.2321" width="3" height="3" fill="white"/>
<mask id="path-6-inside-1_4_388" fill="white">
<rect x="15.09" y="16.9542" width="67.1162" height="24" rx="1"/>
</mask>
<rect x="15.09" y="16.9542" width="67.1162" height="24" rx="1" stroke="#3472CC" stroke-width="4" mask="url(#path-6-inside-1_4_388)"/>
<rect x="16.498" y="74.9542" width="64.3" height="22" rx="1" fill="#B8DCFF"/>
<rect x="16.498" y="74.9542" width="64.3" height="22" rx="1" stroke="#3472CC"/>
<rect x="22.4548" y="80.7321" width="24" height="10" fill="#3472CC"/>
<rect x="26.9548" y="84.2321" width="3" height="3" fill="white"/>
<rect x="32.9548" y="84.2321" width="3" height="3" fill="white"/>
<rect x="38.9548" y="84.2321" width="3" height="3" fill="white"/>
<mask id="path-12-inside-2_4_388" fill="white">
<rect x="15.09" y="73.9542" width="67.1162" height="24" rx="1"/>
</mask>
<rect x="15.09" y="73.9542" width="67.1162" height="24" rx="1" stroke="#3472CC" stroke-width="4" mask="url(#path-12-inside-2_4_388)"/>
<rect x="66.1477" y="81.9542" width="8" height="8" rx="4" fill="white" stroke="#3472CC" stroke-width="4"/>
<rect x="7.10815" y="56.0099" width="3" height="8" transform="rotate(-90 7.10815 56.0099)" fill="#3472CC" stroke="#3472CC"/>
<rect x="4.10815" y="27.0099" width="3" height="29" fill="#3472CC" stroke="#3472CC"/>
<rect x="2.10815" y="19.4542" width="7" height="7" rx="3.5" fill="white" stroke="#3472CC" stroke-width="3"/>
<rect width="4" height="9" transform="matrix(-4.37114e-08 1 1 4.37114e-08 6.60815 58.9542)" fill="#3472CC"/>
<rect width="4" height="30" transform="matrix(1 0 0 -1 3.60815 88.9542)" fill="#3472CC"/>
<rect x="1.5" y="-1.5" width="7" height="7" rx="3.5" transform="matrix(1 0 0 -1 0.608154 94.5099)" fill="white" stroke="#3472CC" stroke-width="3"/>
<path d="M58.9961 30.6921L54.689 34.2454L57.7039 39.7369L62.9801 38.1218L70.4099 42.2135L72.1327 47.9204H77.8396L79.1318 42.2135L87.0999 37.5834L92.2684 39.3062L95.6064 34.2454L91.1917 30.6921V21.9701L95.6064 17.8784L92.9145 12.4945L87.0999 14.002L79.1318 9.80257L77.8396 3.98798H72.1327L70.4099 9.80257L62.9801 14.5404L57.7039 12.4945L54.689 17.2324L58.35 21.1087L58.9961 30.6921Z" fill="#B8DCFF"/>
<path d="M98.4483 32.3822L94.752 29.2213C94.9269 28.1489 95.0172 27.0538 95.0172 25.9588C95.0172 24.8638 94.9269 23.7688 94.752 22.6963L98.4483 19.5354C98.7271 19.2967 98.9266 18.9787 99.0204 18.6238C99.1141 18.2689 99.0976 17.8938 98.9731 17.5485L98.9223 17.4018C97.9047 14.5571 96.381 11.9201 94.4247 9.61803L94.3231 9.4995C94.0858 9.22039 93.7695 9.01975 93.4159 8.92403C93.0623 8.82831 92.688 8.84199 92.3424 8.96327L87.7545 10.5945C86.0616 9.20598 84.1711 8.11096 82.1283 7.34331L81.2423 2.54549C81.1755 2.18448 81.0004 1.85236 80.7403 1.59326C80.4803 1.33415 80.1476 1.16032 79.7864 1.09486L79.634 1.06664C76.6939 0.536056 73.6015 0.536056 70.6614 1.06664L70.509 1.09486C70.1479 1.16032 69.8151 1.33415 69.5551 1.59326C69.295 1.85236 69.1199 2.18448 69.0531 2.54549L68.1615 7.36588C66.135 8.13369 64.2478 9.22814 62.5748 10.6058L57.953 8.96327C57.6075 8.84102 57.2329 8.82685 56.8791 8.92263C56.5253 9.01841 56.209 9.21961 55.9723 9.4995L55.8707 9.61803C53.9167 11.9217 52.3933 14.5583 51.3731 17.4018L51.3223 17.5485C51.0684 18.2541 51.2772 19.0443 51.8471 19.5354L55.5885 22.7302C55.4136 23.7913 55.329 24.8751 55.329 25.9532C55.329 27.0369 55.4136 28.1207 55.5885 29.1762L51.8471 32.371C51.5683 32.6097 51.3688 32.9276 51.2751 33.2825C51.1813 33.6375 51.1978 34.0125 51.3223 34.3578L51.3731 34.5046C52.3945 37.3494 53.9069 39.9741 55.8707 42.2883L55.9723 42.4068C56.2096 42.686 56.5259 42.8866 56.8795 42.9823C57.2331 43.078 57.6074 43.0644 57.953 42.9431L62.5748 41.3005C64.2564 42.6834 66.1356 43.7785 68.1615 44.5405L69.0531 49.3609C69.1199 49.7219 69.295 50.054 69.5551 50.3131C69.8151 50.5722 70.1479 50.746 70.509 50.8115L70.6614 50.8397C73.6285 51.3731 76.6669 51.3731 79.634 50.8397L79.7864 50.8115C80.1476 50.746 80.4803 50.5722 80.7403 50.3131C81.0004 50.054 81.1755 49.7219 81.2423 49.3609L82.1283 44.563C84.1703 43.7974 86.0714 42.6988 87.7545 41.3118L92.3424 42.9431C92.6879 43.0653 93.0625 43.0795 93.4163 42.9837C93.7701 42.8879 94.0864 42.6867 94.3231 42.4068L94.4247 42.2883C96.3885 39.9684 97.9009 37.3494 98.9223 34.5046L98.9731 34.3578C99.227 33.6635 99.0182 32.8733 98.4483 32.3822V32.3822ZM90.7454 23.3624C90.8865 24.2147 90.9598 25.0896 90.9598 25.9645C90.9598 26.8394 90.8865 27.7142 90.7454 28.5666L90.3729 30.83L94.5884 34.4368C93.9493 35.9094 93.1427 37.3034 92.1844 38.5912L86.9475 36.7341L85.1756 38.1904C83.8269 39.2967 82.3258 40.166 80.7006 40.7756L78.5505 41.5828L77.5404 47.0579C75.9466 47.2385 74.3375 47.2385 72.7437 47.0579L71.7336 41.5715L69.6005 40.753C67.9922 40.1434 66.4968 39.2742 65.1593 38.1735L63.3874 36.7116L58.1167 38.5855C57.1573 37.2929 56.356 35.8988 55.7127 34.4312L59.9733 30.7905L59.6065 28.5327C59.471 27.6917 59.3977 26.8224 59.3977 25.9645C59.3977 25.1009 59.4654 24.2372 59.6065 23.3962L59.9733 21.1384L55.7127 17.4977C56.3504 16.0245 57.1573 14.636 58.1167 13.3434L63.3874 15.2174L65.1593 13.7554C66.4968 12.6548 67.9922 11.7855 69.6005 11.1759L71.7392 10.3687L72.7494 4.88231C74.3351 4.70169 75.9547 4.70169 77.546 4.88231L78.5562 10.3575L80.7062 11.1646C82.3258 11.7742 83.8325 12.6435 85.1812 13.7498L86.9532 15.2061L92.19 13.349C93.1494 14.6416 93.9507 16.0358 94.594 17.5034L90.3786 21.1102L90.7454 23.3624ZM75.1533 15.4657C69.6682 15.4657 65.2214 19.9136 65.2214 25.4C65.2214 30.8865 69.6682 35.3343 75.1533 35.3343C80.6385 35.3343 85.0853 30.8865 85.0853 25.4C85.0853 19.9136 80.6385 15.4657 75.1533 15.4657ZM79.6227 29.8704C79.0365 30.4585 78.3399 30.9248 77.5728 31.2425C76.8058 31.5602 75.9835 31.7231 75.1533 31.7218C73.466 31.7218 71.8803 31.0614 70.684 29.8704C70.0961 29.2841 69.6299 28.5873 69.3122 27.8201C68.9946 27.0529 68.8317 26.2304 68.833 25.4C68.833 23.7123 69.4933 22.1262 70.684 20.9296C71.8803 19.7329 73.466 19.0782 75.1533 19.0782C76.8406 19.0782 78.4264 19.7329 79.6227 20.9296C80.2106 21.5159 80.6768 22.2127 80.9944 22.9799C81.3121 23.7472 81.475 24.5696 81.4737 25.4C81.4737 27.0877 80.8134 28.6738 79.6227 29.8704Z" fill="#3472CC"/>
<rect x="16.498" y="46.7321" width="64.3" height="22" rx="1" fill="#B8DCFF"/>
<rect x="16.498" y="46.7321" width="64.3" height="22" rx="1" stroke="#3472CC"/>
<mask id="path-23-inside-3_4_388" fill="white">
<rect x="15.09" y="45.7321" width="67.1162" height="24" rx="1"/>
</mask>
<rect x="15.09" y="45.7321" width="67.1162" height="24" rx="1" stroke="#3472CC" stroke-width="4" mask="url(#path-23-inside-3_4_388)"/>
<rect x="22.4548" y="52.7321" width="24" height="10" fill="#3472CC"/>
<rect x="26.9548" y="56.2321" width="3" height="3" fill="white"/>
<rect x="32.9548" y="56.2321" width="3" height="3" fill="white"/>
<rect x="38.9548" y="56.2321" width="3" height="3" fill="white"/>
<rect x="66.1477" y="53.7321" width="8" height="8" rx="4" fill="white" stroke="#3472CC" stroke-width="4"/>
</svg>
